<?xml version="1.0" encoding="UTF-8"?>
<svg width="32" height="32" viewBox="0 0 32 32" fill="none" xmlns="http://www.w3.org/2000/svg">
  <circle cx="16" cy="16" r="2.5" fill="#61DAFB"/>
  <path d="m15.9 7.4c0 0-8.4-1.5-8.4 8.6s8.4 8.6 8.4 8.6" stroke="#61DAFB" stroke-width="1.3" fill="none"/>
  <path d="m15.9 7.4c0 0 8.4-1.5 8.4 8.6s-8.4 8.6-8.4 8.6" stroke="#61DAFB" stroke-width="1.3" fill="none"/>
  <path d="m24.6 10.7c0 0-3.1-7.4-11.7-1.9s-4.9 11.7-4.9 11.7" stroke="#61DAFB" stroke-width="1.3" fill="none"/>
  <path d="m24.6 21.3c0 0-3.1 7.4-11.7 1.9s-4.9-11.7-4.9-11.7" stroke="#61DAFB" stroke-width="1.3" fill="none"/>
  <path d="m7.4 10.7c0 0 3.1-7.4 11.7-1.9s4.9 11.7 4.9 11.7" stroke="#61DAFB" stroke-width="1.3" fill="none"/>
  <path d="m7.4 21.3c0 0 3.1 7.4 11.7 1.9s4.9-11.7 4.9-11.7" stroke="#61DAFB" stroke-width="1.3" fill="none"/>
</svg>